<?xml version="1.0" encoding="UTF-8" standalone="no"?>
<!-- Generator: Adobe Illustrator 15.0.0, SVG Export Plug-In . SVG Version: 6.00 Build 0)  -->

<svg
   xmlns:dc="http://purl.org/dc/elements/1.1/"
   xmlns:cc="http://creativecommons.org/ns#"
   xmlns:rdf="http://www.w3.org/1999/02/22-rdf-syntax-ns#"
   xmlns:svg="http://www.w3.org/2000/svg"
   xmlns="http://www.w3.org/2000/svg"
   xmlns:sodipodi="http://sodipodi.sourceforge.net/DTD/sodipodi-0.dtd"
   xmlns:inkscape="http://www.inkscape.org/namespaces/inkscape"
   version="1.1"
   x="0px"
   y="0px"
   width="580px"
   height="580px"
   viewBox="0 0 580 580"
   enable-background="new 0 0 580 580"
   xml:space="preserve"
   id="svg2"
   inkscape:version="0.48.4 r9939"
   sodipodi:docname="wheelchair.svg"><metadata
   id="metadata23"><rdf:RDF><cc:Work
       rdf:about=""><dc:format>image/svg+xml</dc:format><dc:type
         rdf:resource="http://purl.org/dc/dcmitype/StillImage" /></cc:Work></rdf:RDF></metadata><defs
   id="defs21">
	

		
		
		
		
	</defs><sodipodi:namedview
   pagecolor="#ffffff"
   bordercolor="#666666"
   borderopacity="1"
   objecttolerance="10"
   gridtolerance="10"
   guidetolerance="10"
   inkscape:pageopacity="0"
   inkscape:pageshadow="2"
   inkscape:window-width="1920"
   inkscape:window-height="1147"
   id="namedview19"
   showgrid="false"
   inkscape:zoom="0.81454783"
   inkscape:cx="54.90024"
   inkscape:cy="290"
   inkscape:window-x="-8"
   inkscape:window-y="-8"
   inkscape:window-maximized="1"
   inkscape:current-layer="svg2" />
<g
   id="Layer_2"
   style="fill:#009800;fill-opacity:1">
	<g
   id="g1327"
   style="fill:#009800;fill-opacity:1">
		<path
   id="path1329"
   fill="#111111"
   stroke="#EEEEEE"
   stroke-width="3.408"
   d="M66.275,1.768    c-41.335,0-64.571,21.371-64.571,65.036v450.123c0,40.844,20.895,62.229,62.192,62.229H515.92    c41.307,0,62.229-20.315,62.229-62.229V66.804c0-42.601-20.923-65.036-63.521-65.036C514.624,1.768,66.133,1.625,66.275,1.768z"
   style="fill:#009800;fill-opacity:1" />
	</g>
</g>
<g
   id="Layer_3">
</g>
<g
   id="g3009"
   transform="translate(35.784286,-26.126948)"><path
     style="fill:#ffffff"
     inkscape:connector-curvature="0"
     id="path11"
     d="m 327.211,437.495 c -22.29,35.193 -55.841,66.109 -98.19,76.403 -56.484,15.369 -119.805,-16.137 -144.832,-66.36 -23.657,-44.2 -15.458,-103.365 21.967,-138.05 5.303,-7.307 19.785,-10.208 17.653,-20.777 -1.431,-12.183 3.949,-30.671 -4.048,-37.835 -50.39,24.211 -88.447,74.111 -91.266,129.25 -5.815,48.633 16.005,97.818 53.772,129.659 26.411,22.946 61.029,37.256 110.527,42.583 55.032,3.675 109.496,-22.227 143.49,-63.523 20.112,-13.506 0.247,-44.12 -9.073,-51.35 z" /><path
     style="fill:#ffffff"
     inkscape:connector-curvature="0"
     id="path13"
     d="m 470.634,443.031 c -9.593,0.594 -27.915,14.389 -53.152,17.339 -24.026,-47.041 -46.925,-95.01 -70.725,-142.321 -41.396,-0.032 -109.154,0.085 -150.672,-0.109 0.059,-1.567 -6.377,-16.904 1.771,-35.116 36.762,0 73.524,0 110.287,0 0,-11.705 0,-23.409 0,-35.114 -37.53,-0.497 -75.342,1.64 -112.646,-1.261 -1.68,-26.596 -1.071,-53.32 -0.406,-79.953 9.25,-12.574 36.665,-18.125 35.463,-40.929 4.466,-28.867 -29.386,-53.448 -56.825,-42.515 -27.716,7.866 -38.153,44.485 -18.226,64.737 0.589,67.315 0.839,134.635 1.827,201.945 32.024,0.004 142.775,-3.877 163.924,0.775 21.278,42.334 72.508,146.458 78.223,155.415 22.666,-7.502 58.238,-24.465 80.777,-32.313 1.161,0.965 0.892,-31.459 -9.62,-30.58 z" /></g>
</svg>